<?xml version="1.0" encoding="UTF-8"?>
<svg id="a" data-name="레이어 1" xmlns="http://www.w3.org/2000/svg" width="512" height="512" viewBox="0 0 512 512">
  <path d="M102.926,212.51c-2.359-3.169-5.625-5.567-9.8-7.19-4.175-1.624-9.162-2.436-14.961-2.436-5.645,0-10.535.812-14.67,2.436-4.137,1.624-7.289,3.885-9.452,6.784-2.166,2.899-3.247,6.205-3.247,9.916-.078,5.645,2.261,10.052,7.016,13.221,4.755,3.171,11.346,5.799,19.774,7.886l15.077,3.595c15.926,3.557,28.278,9.298,37.054,17.222,8.774,7.927,13.201,18.614,13.279,32.067,0,10.13-2.591,18.981-7.77,26.559-5.181,7.578-12.641,13.415-22.383,17.512-9.742,4.097-21.379,6.146-34.908,6.146s-25.302-2.087-35.314-6.263c-10.014-4.175-17.764-10.34-23.253-18.498-5.491-8.156-8.428-18.149-8.814-29.979h33.864c.464,5.49,2.126,10.129,4.987,13.917,2.859,3.789,6.727,6.65,11.597,8.582,4.871,1.933,10.398,2.899,16.584,2.899,6.031,0,11.326-.889,15.888-2.668,4.561-1.777,8.079-4.271,10.554-7.48,2.474-3.207,3.711-6.86,3.711-10.959,0-3.712-1.084-6.861-3.248-9.452-2.166-2.59-5.316-4.793-9.452-6.61-4.137-1.816-9.452-3.538-15.947-5.161l-18.439-4.407c-14.691-3.633-25.96-9.18-33.807-16.642-7.848-7.46-11.771-17.182-11.771-29.167,0-9.974,2.726-18.788,8.176-26.442s12.989-13.607,22.615-17.86c9.626-4.251,20.508-6.378,32.647-6.378,12.215,0,23.001,2.107,32.357,6.321,9.354,4.215,16.622,10.129,21.803,17.744,5.179,7.616,7.847,16.373,8.002,26.268h-33.517c-.464-4.483-1.875-8.31-4.233-11.481Z" fill="#f55" stroke-width="0"/>
  <path d="M181.05,338.226c-9.356-5.411-16.546-13.027-21.571-22.847-5.027-9.818-7.538-21.146-7.538-33.98,0-12.989,2.511-24.373,7.538-34.155,5.025-9.78,12.215-17.376,21.571-22.789,9.354-5.411,20.295-8.119,32.821-8.119,12.447,0,23.369,2.708,32.763,8.119,9.394,5.413,16.564,13.009,21.513,22.789,4.947,9.782,7.422,21.166,7.422,34.155,0,12.835-2.475,24.162-7.422,33.98-4.949,9.819-12.12,17.436-21.513,22.847-9.394,5.413-20.315,8.118-32.763,8.118-12.525,0-23.467-2.705-32.821-8.118ZM213.755,182.704l-16.468,20.18h-29.458v-1.276l33.053-35.952h25.746l33.053,35.952v1.276h-29.458l-16.468-20.18ZM228.658,314.799c3.981-3.323,6.977-7.904,8.988-13.743,2.01-5.837,3.016-12.467,3.016-19.89,0-7.498-1.006-14.148-3.016-19.947-2.011-5.799-5.007-10.36-8.988-13.685-3.983-3.323-8.834-4.987-14.555-4.987-5.877,0-10.864,1.664-14.961,4.987-4.099,3.325-7.19,7.868-9.278,13.627-2.087,5.76-3.131,12.429-3.131,20.005,0,7.5,1.044,14.149,3.131,19.947,2.087,5.799,5.179,10.362,9.278,13.686,4.097,3.325,9.084,4.986,14.961,4.986,5.721,0,10.572-1.661,14.555-4.986Z" fill="#f55" stroke-width="0"/>
  <path d="M328.692,262.262l23.891-44.302h35.372l-36.647,62.858,37.575,63.09h-35.023l-25.167-43.838-24.586,43.838h-35.604l37.46-63.09-36.185-62.858h35.604l23.311,44.302Z" fill="#f55" stroke-width="0"/>
  <path d="M452.623,290.445l-11.134.928c-6.108.464-10.901,2.107-14.381,4.929-3.479,2.823-5.219,6.631-5.219,11.424,0,3.093.792,5.723,2.377,7.886,1.584,2.166,3.827,3.827,6.727,4.987,2.899,1.159,6.165,1.739,9.8,1.739,5.18,0,9.78-1.023,13.801-3.073,4.02-2.048,7.151-4.871,9.395-8.466,2.241-3.596,3.363-7.557,3.363-11.888l-.232-40.707c0-3.555-.754-6.59-2.261-9.104-1.508-2.511-3.79-4.407-6.843-5.683-3.056-1.275-6.669-1.914-10.844-1.914-5.799,0-10.516,1.218-14.148,3.653-3.636,2.436-5.915,5.856-6.843,10.264h-32.705c.772-7.422,3.382-14.091,7.828-20.005,4.445-5.915,10.63-10.572,18.557-13.975,7.924-3.401,17.298-5.103,28.123-5.103,9.742,0,18.632,1.508,26.675,4.523,8.04,3.015,14.515,7.712,19.425,14.091,4.909,6.378,7.365,14.4,7.365,24.064v84.893h-32.589v-17.396h-.928c-2.088,3.943-4.833,7.385-8.234,10.322-3.403,2.939-7.48,5.238-12.235,6.9-4.755,1.661-10.264,2.493-16.526,2.493-8.118,0-15.309-1.432-21.571-4.291s-11.211-7.112-14.845-12.757c-3.635-5.643-5.451-12.447-5.451-20.412,0-13.143,4.35-22.69,13.048-28.646,8.698-5.952,19.966-9.354,33.807-10.206,2.319-.231,9.47-.617,21.455-1.159l11.365-.464.231,21.224c-3.093.078-8.544.388-16.352.928Z" fill="#f55" stroke-width="0"/>
</svg>